<?xml version="1.0" standalone="no"?>
<!DOCTYPE svg PUBLIC "-//W3C//DTD SVG 20010904//EN" "http://www.w3.org/TR/2001/REC-SVG-20010904/DTD/svg10.dtd">
<!-- Created using Krita: http://krita.org -->
<svg xmlns="http://www.w3.org/2000/svg" 
    xmlns:xlink="http://www.w3.org/1999/xlink"
    xmlns:krita="http://krita.org/namespaces/svg/krita"
    xmlns:sodipodi="http://sodipodi.sourceforge.net/DTD/sodipodi-0.dtd"
    width="34.56pt"
    height="34.56pt"
    viewBox="0 0 34.56 34.56">
<defs/>
<path id="shape0" transform="translate(0.565233644859813, 0.807476635514019)" fill="none" stroke="#000000" stroke-width="2.1384" stroke-linecap="square" stroke-linejoin="miter" stroke-miterlimit="2" d="M0 0.201869L33.268 0"/><path id="shape1" transform="translate(0.88822429906542, 0.968971962616822)" fill="none" stroke="#000000" stroke-width="2.1384" stroke-linecap="square" stroke-linejoin="miter" stroke-miterlimit="2" d="M0 0L0.121121 32.6624"/><path id="shape2" transform="translate(0.847850467289719, 33.5102803738318)" fill="none" stroke="#000000" stroke-width="2.1384" stroke-linecap="square" stroke-linejoin="miter" stroke-miterlimit="2" d="M0 0.0807477L32.945 0"/><path id="shape3" transform="translate(33.3084112149533, 0.928598130841121)" fill="none" stroke="#000000" stroke-width="2.1384" stroke-linecap="square" stroke-linejoin="miter" stroke-miterlimit="2" d="M0 32.7028L0.161495 0"/><rect id="shape4" transform="translate(2.88, 2.88)" fill="#ffffff" fill-rule="evenodd" stroke="#ffffff" stroke-width="2.1384" stroke-linecap="square" stroke-linejoin="bevel" width="28.8" height="28.8"/><path id="shape5" transform="translate(4.80448598130841, 19.7024299065421)" fill="none" stroke="#000000" stroke-width="2.1384" stroke-linecap="square" stroke-linejoin="miter" stroke-miterlimit="2" d="M0 10.0935L9.12449 0"/><path id="shape6" transform="translate(5.16785046728972, 22.0844859813084)" fill="none" stroke="#000000" stroke-width="2.1384" stroke-linecap="square" stroke-linejoin="miter" stroke-miterlimit="2" d="M0 7.14617L0.242243 0"/><path id="shape7" transform="translate(5.81383177570093, 29.2306542056075)" fill="none" stroke="#000000" stroke-width="2.1384" stroke-linecap="square" stroke-linejoin="miter" stroke-miterlimit="2" d="M0 0L6.66168 0.767103"/><path id="shape0" transform="matrix(0.999999985311165 0 0 0.999999985311165 19.6044170221424 4.29466681627378)" fill="none" stroke="#000000" stroke-width="2.1384" stroke-linecap="square" stroke-linejoin="miter" stroke-miterlimit="2" d="M0 10.0935L9.12449 0"/><path id="shape01" transform="matrix(0.999999980058071 0 0 0.999999980058071 29.0922716178035 4.35118798072914)" fill="none" stroke="#000000" stroke-width="2.1384" stroke-linecap="square" stroke-linejoin="miter" stroke-miterlimit="2" d="M0 7.14617L0.242243 0"/><path id="shape02" transform="matrix(0.999999951908407 0 0 0.999999951908407 21.8170466834761 4.04448541543695)" fill="none" stroke="#000000" stroke-width="2.1384" stroke-linecap="square" stroke-linejoin="miter" stroke-miterlimit="2" d="M0 0L6.66168 0.767103"/>
</svg>
